<?xml version="1.0" encoding="UTF-8"?><svg id="uuid-82200c28-7998-4983-aecd-6cedc76ad194" xmlns="http://www.w3.org/2000/svg" viewBox="0 0 1113.66 1099.42"><g id="uuid-a7107da6-ce39-4ed6-a0ed-181a0bb21513"><path d="M485.03,785.14c-80.31,0-160.61-.09-240.92.07-19.69.04-38.96,2.85-56.89,11.86-30.61,15.39-46.24,40.86-50.51,74.17-1.78,13.87-1.07,27.53,2.4,41.07,9.88,38.61,40.97,63,80.77,63.61,14.48.22,28.6-1.13,42.18-6.57,22.21-8.89,37.68-24.69,47.55-46.22,5.7-12.44,8.78-25.6,10.03-39.21.7-7.65,1.34-8.39,9.07-8.4,39.11-.06,78.22-.06,117.33,0,7.81.01,8.7.77,8.25,8.61-1.5,25.9-6.26,51.19-14.95,75.68-9.89,27.88-24.52,52.96-44.88,74.49-12.06,12.75-25.86,23.5-41,32.36-27.61,16.17-57.56,25.54-89.21,29.63-16.03,2.07-32.13,3.56-48.32,2.99-51.05-1.81-98.19-15.32-138.92-47.35-29.18-22.94-50.23-51.91-63.16-86.73C4.49,940.03.2,914.02,0,887.12c-.2-27.39,3.23-54.06,12.04-80.01,16.15-47.55,46.04-84.22,88.37-110.85,33.5-21.08,70.35-32.41,109.51-36.76,18.93-2.1,37.91-2.78,56.95-2.78,146.01.06,292.02-.14,438.03.14,40.78.08,79.88-7.2,117.13-23.64,51.44-22.7,91.6-58.25,119.75-107.08,19.17-33.27,29.97-69.14,33.56-107.35,4.24-45.12-.63-89.17-16.8-131.46-29.15-76.19-83.11-125.95-161.74-148.55-30.68-8.81-62.11-11.11-93.74-9.03-50.31,3.31-96.52,18.9-137.08,49.41-26.98,20.3-48.89,45.27-65.91,74.47-23.64,40.56-36.2,84.58-41.36,131-2.05,18.42-2.99,36.85-2.93,55.38.13,38.07.04,76.13.04,114.2,0,2.35.1,4.7-.08,7.04-.36,4.87-1.23,5.69-6.22,6.08-1.82.14-3.65.07-5.47.07-37.55,0-75.09,0-112.64,0-1.56,0-3.13.05-4.69-.04-5.96-.32-6.75-1.08-7.11-6.82-.06-1.04-.04-2.09-.04-3.13.02-45.63-.84-91.28.28-136.88,1.81-73.85,16.73-144.84,50.54-211.14,21.17-41.51,48.64-78.4,83.2-109.71,41.39-37.49,88.96-64.27,142.39-80.71,30.55-9.4,61.74-15.35,93.53-17.65,80.21-5.79,157.05,6.85,228.6,44.87,63.11,33.54,112.01,81.88,146.55,144.55,24.73,44.87,39.17,92.96,45.57,143.71,3.71,29.38,4.22,58.87,2.29,88.21-4.54,69.26-25.41,133.39-64.5,191.11-35.51,52.42-81.72,92.88-137.68,122.38-45.49,23.98-93.88,38.65-144.75,45.34-19.38,2.55-38.87,3.74-58.46,3.7-74.05-.16-148.1-.06-222.14-.06Z"/></g></svg>